<svg version="1.0" class="arrow" xmlns="http://www.w3.org/2000/svg" xmlns:xlink="http://www.w3.org/1999/xlink" x="0px" y="0px"
	 viewBox="0 0 56 56" style="enable-background:new 0 0 56 56;" xml:space="preserve" fill="#efefef">
<path d="M52.6,24.2C52.6,24.2,52.6,24.2,52.6,24.2L32.8,4.4c-2.1-2.1-5.5-2.1-7.6,0s-2.1,5.5,0,7.6l10.7,10.7h-29
	c-3,0-5.4,2.4-5.4,5.4v0c0,3,2.4,5.4,5.4,5.4h29L25.2,44c-2.1,2.1-2.1,5.5,0,7.6s5.5,2.1,7.6,0l19.8-19.8c0,0,0,0,0.1-0.1
	c1-1,1.6-2.4,1.6-3.8C54.2,26.6,53.7,25.2,52.6,24.2z"/>
</svg>
