<?xml version="1.0" encoding="utf-8"?>
<!-- Generator: Adobe Illustrator 19.1.0, SVG Export Plug-In . SVG Version: 6.00 Build 0)  -->
<svg version="1.1" id="Layer_1" xmlns="http://www.w3.org/2000/svg" xmlns:xlink="http://www.w3.org/1999/xlink" x="0px" y="0px"
	 viewBox="0 0 80 80" style="enable-background:new 0 0 80 80;" xml:space="preserve">
<style type="text/css">
	.st0{fill:#FFFFFF;}
</style>
<path id="White_2_" class="st0" d="M75.3,0.3H4.7c-2.4,0-4.4,2-4.4,4.4v70.7c0,2.4,2,4.4,4.4,4.4h38.1V49H32.4V37h10.4v-8.8
	c0-10.3,6.3-15.8,15.4-15.8c4.4,0,8.2,0.3,9.3,0.5v10.7l-6.3,0c-5,0-5.9,2.4-5.9,5.8V37H67l-1.5,12H55.1v30.8h20.2
	c2.4,0,4.4-2,4.4-4.4V4.7C79.7,2.2,77.8,0.3,75.3,0.3z"/>
</svg>
