<?xml version="1.0" encoding="utf-8"?>
<!-- Generator: Adobe Illustrator 19.1.0, SVG Export Plug-In . SVG Version: 6.00 Build 0)  -->
<svg version="1.1" id="Layer_1" xmlns="http://www.w3.org/2000/svg" xmlns:xlink="http://www.w3.org/1999/xlink" x="0px" y="0px"
	 viewBox="0 0 120 80" style="enable-background:new 0 0 120 80;" xml:space="preserve">
<style type="text/css">
	.st0{fill:#FFFFFF;}
</style>
<g>
	<path class="st0" d="M39.9,35.9v12.5h21.5C58,57,49.5,63.1,39.7,63.1c-13,0-23.5-10.5-23.5-23.5s10.5-23.5,23.5-23.5
		c6.1,0,11.6,2.3,15.8,6.2L65.9,12c-6.8-6.5-16-10.5-26.2-10.5c-21,0-38.1,17-38.1,38.1s17,38.1,38.1,38.1c18,0,33-12.5,37-29.3h0
		V35.9H39.9z"/>
	<polygon class="st0" points="118.9,34.6 108.2,34.6 108.2,23.9 97.5,23.9 97.5,34.6 86.8,34.6 86.8,45.3 97.5,45.3 97.5,56 
		108.2,56 108.2,45.3 118.9,45.3 	"/>
</g>
</svg>
