<?xml version="1.0" encoding="utf-8"?>
<svg version="1.0" id="logo" xmlns="http://www.w3.org/2000/svg" xmlns:xlink="http://www.w3.org/1999/xlink" x="0px" y="0px"
	 viewBox="0 0 120 46.5" style="enable-background:new 0 0 120 46.5;" xml:space="preserve">
<g>
	<path d="M1,23c0,0,2.8,1.3,7.7-4.7s6.8-1.4,6.8-1.4s5.2-8.5,8.8-7.4c0,0,1.9,1.3,1,3.2c0,0,6.4-10.1,10.6-8.7c0,0,1.9,0.2-0.9,5.8
		C32.3,15.4,23.3,31,23.7,35.1c0.4,4.2,1,5.9,2.2,6.8c0,0-3.1,0.4-4.3-2.6c-1.2-3-1.2-8,0.2-11.4s8.1-15,8.1-15s0.8-1.8-0.3-0.4
		S14.6,34.3,13,37.3c0,0-3.3-0.3-2.4-2.1s8.1-15.7,9-17.8c0,0,1.2-3.2-0.3-0.7s-6.1,8.6-11.9,16.8c0,0-3.3-0.2-2.2-1.8
		c1-1.6,5.5-9.3,5.8-11.4c0,0,0.1-0.5-0.5,0.3C9.8,21.4,2.5,30.2,1,23z"/>
	<path d="M49.8,18.1c0,0,0-2.2-0.9-1.8c-0.9,0.4-2.9,1.4-3.6,2.3c0,0-6.8-2.2-8.9,7.1c0,0,0.3,0.6,0.7,1c0,0-1.1,1.6-1.6,0.8
		c-0.5-0.8-0.5-1.4,0.5-3.1c1-1.7,1-3.1-1-4c0,0,0.1-0.7-0.9-0.5c-1,0.1-5.6,0.8-6.9,5.2c-1.3,4.5,1.5,4.6,1.5,4.6s2.2,0.7,3.5-1.8
		c0,0,1.2,2.9,2.3,2.2c0,0,0.4,0,0.6-0.2c0,0-6.2,6.4-2.4,9c3.8,2.6,7.9-2.1,7.9-2.1s4.5-5.1,2.4-8.7c0,0,7.4-4.6,3.8-7.5
		C46.7,20.5,48.3,18.6,49.8,18.1z M30,26.9c-0.4,0.3-0.4-0.5-0.4-0.5c1-2.4,2.5-2.4,2.5-2.4C33,24.3,30.4,26.5,30,26.9z M36.7,37
		c-1.8,1.3-2.6,0.5-2.6,0.5c-0.9-2.2,5.7-8,6.2-8.3c0.5-0.4,0.4,0,0.4,0C41.5,31.6,38.6,35.7,36.7,37z M41.3,25.4
		c-1.7,0.4-1.1-0.9-1.1-0.9c1.9-3.3,3.7-2.9,3.7-2.9C45.5,21.9,43,25,41.3,25.4z"/>
	<path d="M52.7,22.8c0,0,2-2.3,0.7-2.9c-1.4-0.6-3-0.4-3.8,0.7s-5.4,8.5-0.7,9.8c0,0,2.6,0.9,5-2.6c0,0,1.4,3,4.7,2.9
		c3.2-0.1,7.2-0.8,9.9-6c0,0-0.8-2.7-1.6-1.8c-0.7,0.9-4.2,5.9-8.1,5.7c-3.9-0.2-2.3-6.3,2-6.7c0,0,1.2,0.3,0.9-0.8
		c-0.3-1.1-2.6-1.4-2.6-1.4s-4.7,0.6-5.4,4.9c0,0-2.7,3.5-3.6,3.6c0,0-0.8,0.2,0-1.1C50.9,25.6,52.7,22.8,52.7,22.8z"/>
	<path d="M56.4,11.9c0,0-2-1-3.1,2.2c0,0-0.3,1.9,1.4,2s2.6-1.6,2.6-1.6S58,12.7,56.4,11.9z"/>
</g>
<g>
	<path d="M83.6,12.1c0,0,0.2,1.3,2.1,0.8c1.9-0.5,5.6-2.1,6.2-5.9c0.6-3.8-2.4-8.8-9.8-4c0,0-6,3.3-2.8,17.9c0,0,4.6,20.9-7.9,21.2
		c0,0-6.3,0-4.9-8.1c1.3-8.1,9.2-11.9,9.2-11.9s1-1.6-0.6-1.5c-1.6,0.2-10.9,2.1-11.6,13.6s7.9,10.9,7.9,10.9s17.2,2,11.3-24.9
		c0,0-2.3-10.8,1.8-14c0,0,5.1-5.1,3.6,0.7C88.2,6.9,85.1,11.7,83.6,12.1z"/>
	<path d="M118.3,6.9c0,0-6.4-4.4-10.5,11.2c0,0-6.3-1.2-9,6.2c0,0-4.1,3.9-5,3c0,0,8.3-7.2,6.3-9.5c0,0-3-4.8-8.4,1.5
		c0,0-2.9,4.6-0.9,7.2c0,0-5.5,3.3-4,0c1.6-3.3,5.6-10.6,8.6-15.4c0,0,0.7-1.3-1.5-2c0,0-4.8,0.4-10.2,15.9c0,0-2.7,8.4,8.2,3.5
		c0,0,2.6,2.9,7.1-0.7c0,0,2.6,3.9,7,0.8c0,0,0.7,3.8,1.2,4.4c0.5,0.6,3.4,2.1,3,0.7c-0.4-1.3-2.2-6.3,0-11.2
		C110.4,22.3,121.3,9.5,118.3,6.9z M96.9,19c0,0,0.6-0.6,0.5,0.5c-0.1,1.1-3.5,4.2-3.5,4.2C94,21.1,96.9,19,96.9,19z M103.4,27.4
		c-1.2,0.8-1.6,0-1.6,0c-0.4-5.1,4.9-6.1,4.9-6.1C109.4,22.3,103.4,27.4,103.4,27.4z"/>
</g>
</svg>
