<svg version="1.0" id="Layer_1" xmlns="http://www.w3.org/2000/svg" xmlns:xlink="http://www.w3.org/1999/xlink" x="0px" y="0px"
	 viewBox="0 0 400 246.4" style="enable-background:new 0 0 400 246.4;" xml:space="preserve">
<style type="text/css">
	.st0{opacity:0.85;fill:#EFEFEF;}
	.st1{fill:#BDD4DE;}
	.st2{fill:#EFEFEF;}
	.st3{fill:#3B505B;}
	.st4{fill:#F15623;}
</style>
<polygon class="st0" points="40.8,216.2 119.6,137.4 198.6,216.4 "/>
<polygon class="st0" points="129.7,216.1 247.8,97.9 366.3,216.4 "/>
<path class="st1" d="M174,67.1c-5.8,0-10.7,3.4-13.1,8.2c-1.5-0.7-3.1-1.2-4.9-1.2c-5,0-9.3,3.4-10.6,8.1c-0.9-0.4-1.9-0.6-2.9-0.6
	c-3.2,0-5.8,2.1-6.7,4.9h-15.3c-2.6,0-4.8,2.1-4.8,4.8s2.1,4.8,4.8,4.8h39H174h4.9c5.2,0,9.5-4.3,9.5-9.5v-4.9
	C188.5,73.6,182,67.1,174,67.1z"/>
<path class="st2" d="M174,67.1c-5.8,0-10.7,3.4-13.1,8.2c-1.5-0.7-3.1-1.2-4.9-1.2c-5,0-9.3,3.4-10.6,8.1c-0.9-0.4-1.9-0.6-2.9-0.6
	c-3.2,0-5.8,2.1-6.7,4.9h-15.3c-2.2,0-4,1.5-4.6,3.5c0.6,2,2.4,3.5,4.6,3.5h39H174h4.9c5.2,0,9.5-4.3,9.5-9.5v-2.4
	C188.4,73.6,182,67.1,174,67.1z"/>
<g>
	<path class="st1" d="M272.9,97.9c-2.9,0-5.4,1.7-6.5,4.1c-0.7-0.4-1.6-0.6-2.5-0.6c-2.5,0-4.6,1.7-5.3,4c-0.4-0.2-0.9-0.3-1.5-0.3
		c-1.6,0-2.9,1-3.4,2.5h-7.7c-1.3,0-2.4,1.1-2.4,2.4s1.1,2.4,2.4,2.4h19.5h7.2h2.5c2.6,0,4.8-2.1,4.8-4.8v-2.5
		C280.1,101.2,276.9,97.9,272.9,97.9z"/>
	<path class="st2" d="M272.8,97.9c-2.9,0-5.4,1.7-6.5,4.1c-0.7-0.4-1.6-0.6-2.5-0.6c-2.5,0-4.6,1.7-5.3,4c-0.4-0.2-0.9-0.3-1.5-0.3
		c-1.6,0-2.9,1-3.4,2.5h-7.7c-1.1,0-2,0.7-2.3,1.8c0.3,1,1.2,1.8,2.3,1.8h19.5h7.2h2.5c2.6,0,4.8-2.1,4.8-4.8v-1.2
		C280.1,101.2,276.8,97.9,272.8,97.9z"/>
</g>
<polygon class="st3" points="334,246.4 366.3,216.4 40.8,216.2 71,246.4 "/>
<circle class="st4" cx="293.6" cy="67.1" r="19.8"/>
</svg>
