<?xml version="1.0" encoding="utf-8"?>
<!-- Generator: Adobe Illustrator 19.1.0, SVG Export Plug-In . SVG Version: 6.00 Build 0)  -->
<svg version="1.1" id="Layer_1" xmlns="http://www.w3.org/2000/svg" xmlns:xlink="http://www.w3.org/1999/xlink" x="0px" y="0px"
	 viewBox="0 0 400 400" style="enable-background:new 0 0 400 400;" xml:space="preserve">
<style type="text/css">
	.st0{fill:#3570B7;}
	.st1{fill:#326A9A;}
	.st2{fill:#EDEEEF;stroke:#3570B7;stroke-miterlimit:10;}
	.st3{fill:#E0E0E0;}
	.st4{fill:#EDEEEF;}
	.st5{fill:#121212;}
	.st6{fill:#C6C6C5;}
	.st7{fill:#E9AE21;}
</style>
<circle class="st0" cx="200.7" cy="199.3" r="199.3"/>
<path class="st1" d="M160.4,285.6l104.5,102.3C340.3,362,395.3,292.2,399.3,209L228.8,102.2L160.4,285.6z"/>
<path class="st2" d="M201.1,188.4c-66.3,0-120,53.7-120,120c0,21.9,5.9,42.4,16.1,60c30.3,18.5,65.8,29.2,103.9,29.2
	s73.6-10.7,103.9-29.2c10.2-17.7,16.1-38.2,16.1-60C321,242.1,267.3,188.4,201.1,188.4z"/>
<circle class="st3" cx="198.7" cy="168.1" r="67.9"/>
<circle class="st4" cx="198.7" cy="163.1" r="67.9"/>
<path class="st5" d="M194.1,258.8c0,0-4,0.7-3.5,6.1c0.5,5.5,3.5,6.8,3.5,6.8s8.4,3.4,7.9,0c-0.5-3.4,7.9-6.1,3.5-9.6
	s-4.5-3.4-4.5-3.4H194.1z"/>
<path class="st5" d="M196.9,300.2c0,0-6.8,2.4-6.3,7.9c0.5,5.5,3.5,6.8,3.5,6.8s5.1,1.9,7.9,0c3.9-2.7,4.3-6.3,3.5-9.6
	c-1.2-5.1-3.5-3.4-3.5-3.4L196.9,300.2z"/>
<path class="st5" d="M196.8,370c0,0,2.8,2.9,7-0.6c4.2-3.5,3.7-6.7,3.7-6.7s-1.3-5.4-4.5-6.5c-3.5-1.2-9.6-3-9.8,2.6
	c-0.3,5.6-0.3,5.6-0.3,5.6L196.8,370z"/>
<path class="st5" d="M184.3,149.7c0,0-6-4.1-10.1-0.5c-4.1,3.6-3.5,6.8-3.5,6.8s1.4,5.3,4.7,6.4c4.5,1.6,7.6-0.2,9.8-2.8
	c3.4-4,0.7-4.8,0.7-4.8L184.3,149.7z"/>
<path class="st5" d="M208.3,159.2c0,0,4.6,5.5,9.6,3.2s5.2-5.6,5.2-5.6s0.1-5.4-2.8-7.4c-3.9-2.7-7.4-1.8-10.2,0.1
	c-4.4,3-2,4.4-2,4.4L208.3,159.2z"/>
<path class="st6" d="M190.6,171.2l-19.5,43.6l30-31.1C201.1,183.8,203.9,170.5,190.6,171.2z"/>
<path class="st7" d="M191.8,168.1l-19.5,43.6l30-31.1C202.3,180.7,205.1,167.4,191.8,168.1z"/>
</svg>
